<svg width="512" height="512" version="1.1" xmlns="http://www.w3.org/2000/svg" desc="Created with imagetracer.js version 1.2.6" ><path fill="rgb(34,30,31)" stroke="rgb(34,30,31)" stroke-width="1" opacity="0.984313725490196" d="M 213.5 44 L 298.5 44 Q 311.4 46.6 318 55.5 L 324 67.5 Q 322.3 73.7 325 75.5 L 325 105 L 440.5 105 L 447 110.5 L 448 117.5 L 442.5 125 L 440.5 126 L 403.5 126 L 402 127.5 L 398 174.5 L 396 184.5 L 396 193.5 L 395 194.5 L 395 203.5 L 394 204.5 L 394 213.5 L 393 214.5 L 393 223.5 L 392 224.5 L 392 233.5 L 391 234.5 L 389 262.5 L 388 263.5 L 388 272.5 L 387 273.5 L 387 282.5 L 386 283.5 L 386 292.5 L 385 293.5 L 382 331.5 L 381 332.5 L 381 341.5 L 380 342.5 L 377 380.5 L 376 381.5 L 376 390.5 L 375 391.5 L 372 429.5 L 371 430.5 L 371 439.5 L 370 440.5 L 370 449.5 L 369 450.5 L 369 458.5 L 364.5 466 L 360.5 468 L 149.5 468 L 142 462.5 L 140 452.5 L 140 442.5 L 138 431.5 L 137 410.5 L 135 399.5 L 135 389.5 L 133 378.5 L 133 368.5 L 131 357.5 L 130 336.5 L 128 325.5 L 128 315.5 L 126 304.5 L 125 283.5 L 123 272.5 L 123 262.5 L 121 251.5 L 121 241.5 L 119 230.5 L 119 220.5 L 118 219.5 L 118 209.5 L 116 198.5 L 116 188.5 L 114 177.5 L 114 167.5 L 113 166.5 L 110 126 L 71.5 126 L 65 120.5 L 64 113.5 L 69.5 106 L 71.5 105 L 187 105 L 187 75.5 Q 189.8 73.7 188 67.5 Q 191.1 57.1 198.5 51 Q 204.2 45.7 213.5 44 Z M 219 65 L 215 66 L 209 73 L 209 105 L 303 105 L 303 73 L 302 71 L 298 66 L 294 65 L 219 65 Z M 133 126 L 131 128 Q 133 132 132 141 L 133 142 L 133 151 L 134 152 L 134 162 L 135 163 L 135 172 L 136 173 L 137 193 L 138 194 L 139 214 L 140 215 L 141 235 L 142 236 L 143 256 L 144 257 L 145 278 L 147 289 L 147 299 L 149 310 L 149 320 L 151 331 L 151 341 L 153 352 L 156 394 L 158 405 L 158 415 L 160 426 L 161 446 L 163 447 L 348 447 L 349 444 L 352 405 L 354 395 L 358 346 L 360 336 L 364 287 L 365 286 L 365 277 L 367 267 L 370 228 L 372 218 L 376 169 L 378 159 L 379 140 L 380 139 L 380 130 L 381 129 L 380 126 L 316 126 L 315 127 L 133 126 Z " /><path fill="rgb(0,0,0)" stroke="rgb(0,0,0)" stroke-width="1" opacity="0" d="M 2.5 0 L 17 0.5 L 0 16.5 L 0 2.5 L 2.5 0 Z " /><path fill="rgb(0,0,0)" stroke="rgb(0,0,0)" stroke-width="1" opacity="0" d="M 22.5 0 L 37 0.5 L 0 36.5 L 0 22.5 L 22.5 0 Z " /><path fill="rgb(0,0,0)" stroke="rgb(0,0,0)" stroke-width="1" opacity="0" d="M 42.5 0 L 57 0.5 L 0 56.5 L 0 42.5 L 42.5 0 Z " /><path fill="rgb(0,0,0)" stroke="rgb(0,0,0)" stroke-width="1" opacity="0" d="M 62.5 0 L 77 0.5 L 0 76.5 L 0 62.5 L 62.5 0 Z " /><path fill="rgb(0,0,0)" stroke="rgb(0,0,0)" stroke-width="1" opacity="0" d="M 82.5 0 L 97 0.5 L 0 96.5 L 0 82.5 L 82.5 0 Z " /><path fill="rgb(0,0,0)" stroke="rgb(0,0,0)" stroke-width="1" opacity="0" d="M 102.5 0 L 117 0.5 L 0 116.5 L 0 102.5 L 102.5 0 Z " /><path fill="rgb(0,0,0)" stroke="rgb(0,0,0)" stroke-width="1" opacity="0" d="M 122.5 0 L 137 0.5 L 0 136.5 L 0 122.5 L 122.5 0 Z " /><path fill="rgb(0,0,0)" stroke="rgb(0,0,0)" stroke-width="1" opacity="0" d="M 142.5 0 L 157 0.5 L 0 156.5 L 0 142.5 L 142.5 0 Z " /><path fill="rgb(0,0,0)" stroke="rgb(0,0,0)" stroke-width="1" opacity="0" d="M 162.5 0 L 177 0.5 L 72.5 105 Q 67.8 105.3 66 108.5 L 64 113.5 L 0.5 177 L 0 162.5 L 162.5 0 Z " /><path fill="rgb(0,0,0)" stroke="rgb(0,0,0)" stroke-width="1" opacity="0" d="M 182.5 0 L 197 0.5 L 93.5 104 L 79.5 104 L 182.5 0 Z " /><path fill="rgb(0,0,0)" stroke="rgb(0,0,0)" stroke-width="1" opacity="0" d="M 202.5 0 L 217 0.5 L 113.5 104 L 99.5 104 L 202.5 0 Z " /><path fill="rgb(0,0,0)" stroke="rgb(0,0,0)" stroke-width="1" opacity="0" d="M 222.5 0 L 237 0.5 L 133.5 104 L 119.5 104 L 222.5 0 Z " /><path fill="rgb(0,0,0)" stroke="rgb(0,0,0)" stroke-width="1" opacity="0" d="M 242.5 0 L 257 0.5 L 213.5 44 Q 198.4 46.4 192 57.5 Q 188.5 62 188 69.5 L 153.5 104 L 139 103.5 L 242.5 0 Z " /><path fill="rgb(0,0,0)" stroke="rgb(0,0,0)" stroke-width="1" opacity="0" d="M 262.5 0 L 277 0.5 L 233.5 44 L 219.5 44 L 262.5 0 Z " /><path fill="rgb(0,0,0)" stroke="rgb(0,0,0)" stroke-width="1" opacity="0" d="M 282.5 0 L 297 0.5 L 253.5 44 L 239.5 44 L 282.5 0 Z " /><path fill="rgb(0,0,0)" stroke="rgb(0,0,0)" stroke-width="1" opacity="0" d="M 302.5 0 L 317 0.5 L 273.5 44 L 259.5 44 L 302.5 0 Z " /><path fill="rgb(0,0,0)" stroke="rgb(0,0,0)" stroke-width="1" opacity="0" d="M 322.5 0 L 337 0.5 L 293.5 44 L 279.5 44 L 322.5 0 Z " /><path fill="rgb(0,0,0)" stroke="rgb(0,0,0)" stroke-width="1" opacity="0" d="M 342.5 0 L 357 0.5 L 309.5 48 L 308.5 47 L 299 43.5 L 342.5 0 Z " /><path fill="rgb(0,0,0)" stroke="rgb(0,0,0)" stroke-width="1" opacity="0" d="M 362.5 0 L 377 0.5 L 319.5 57 L 316 52 L 313 50.5 L 362.5 0 Z " /><path fill="rgb(0,0,0)" stroke="rgb(0,0,0)" stroke-width="1" opacity="0" d="M 382.5 0 L 397 0.5 L 325.5 72 L 324 70.5 L 322 60.5 L 382.5 0 Z " /><path fill="rgb(0,0,0)" stroke="rgb(0,0,0)" stroke-width="1" opacity="0" d="M 402.5 0 L 417 0.5 L 325 91.5 L 325 77.5 L 402.5 0 Z " /><path fill="rgb(0,0,0)" stroke="rgb(0,0,0)" stroke-width="1" opacity="0" d="M 422.5 0 L 437 0.5 L 333.5 104 L 325 104 L 325 97.5 L 422.5 0 Z " /><path fill="rgb(0,0,0)" stroke="rgb(0,0,0)" stroke-width="1" opacity="0" d="M 442.5 0 L 457 0.5 L 353.5 104 L 339.5 104 L 442.5 0 Z " /><path fill="rgb(0,0,0)" stroke="rgb(0,0,0)" stroke-width="1" opacity="0" d="M 462.5 0 L 477 0.5 L 373.5 104 L 359.5 104 L 462.5 0 Z " /><path fill="rgb(0,0,0)" stroke="rgb(0,0,0)" stroke-width="1" opacity="0" d="M 482.5 0 L 497 0.5 L 393.5 104 L 379.5 104 L 482.5 0 Z " /><path fill="rgb(0,0,0)" stroke="rgb(0,0,0)" stroke-width="1" opacity="0" d="M 502.5 0 L 512 0 L 512 5.5 L 413.5 104 L 399.5 104 L 502.5 0 Z " /><path fill="rgb(0,0,0)" stroke="rgb(0,0,0)" stroke-width="1" opacity="0" d="M 511.5 11 L 512 25.5 L 433.5 104 L 419.5 104 L 511.5 11 Z " /><path fill="rgb(0,0,0)" stroke="rgb(0,0,0)" stroke-width="1" opacity="0" d="M 511.5 31 L 512 45.5 L 447.5 110 L 446 110 L 444.5 107 L 438 104.5 L 511.5 31 Z " /><path fill="rgb(0,0,0)" stroke="rgb(0,0,0)" stroke-width="1" opacity="0" d="M 511.5 51 L 512 65.5 L 397 179.5 L 399 163.5 L 435.5 127 Q 443 127 446 122.5 Q 448.7 120.2 448 114.5 L 511.5 51 Z " /><path fill="rgb(0,0,0)" stroke="rgb(0,0,0)" stroke-width="1" opacity="0" d="M 216.5 66 L 231 66.5 L 209 87.5 L 209 74.5 L 216.5 66 Z " /><path fill="rgb(0,0,0)" stroke="rgb(0,0,0)" stroke-width="1" opacity="0" d="M 236.5 66 L 251 66.5 L 213.5 104 L 209 104 L 209 93.5 L 236.5 66 Z " /><path fill="rgb(0,0,0)" stroke="rgb(0,0,0)" stroke-width="1" opacity="0" d="M 256.5 66 L 271 66.5 L 233.5 104 L 219.5 104 L 256.5 66 Z " /><path fill="rgb(0,0,0)" stroke="rgb(0,0,0)" stroke-width="1" opacity="0" d="M 276.5 66 L 291 66.5 L 253.5 104 L 239.5 104 L 276.5 66 Z " /><path fill="rgb(0,0,0)" stroke="rgb(0,0,0)" stroke-width="1" opacity="0" d="M 296.5 66 L 301 69.5 L 303 74.5 L 273.5 104 L 259.5 104 L 296.5 66 Z " /><path fill="rgb(0,0,0)" stroke="rgb(0,0,0)" stroke-width="1" opacity="0" d="M 511.5 71 L 512 85.5 L 395 201.5 L 397 185.5 L 511.5 71 Z " /><path fill="rgb(0,0,0)" stroke="rgb(0,0,0)" stroke-width="1" opacity="0" d="M 186.5 76 L 187 90.5 L 173.5 104 L 159.5 104 L 186.5 76 Z " /><path fill="rgb(0,0,0)" stroke="rgb(0,0,0)" stroke-width="1" opacity="0" d="M 302.5 80 L 303 94.5 L 293.5 104 L 279.5 104 L 302.5 80 Z " /><path fill="rgb(0,0,0)" stroke="rgb(0,0,0)" stroke-width="1" opacity="0" d="M 511.5 91 L 512 105.5 L 393 223.5 L 394 208.5 L 511.5 91 Z " /><path fill="rgb(0,0,0)" stroke="rgb(0,0,0)" stroke-width="1" opacity="0" d="M 186.5 96 L 187 104 L 179 103.5 L 186.5 96 Z " /><path fill="rgb(0,0,0)" stroke="rgb(0,0,0)" stroke-width="1" opacity="0" d="M 302.5 100 L 303 104 L 299 103.5 L 302.5 100 Z " /><path fill="rgb(0,0,0)" stroke="rgb(0,0,0)" stroke-width="1" opacity="0" d="M 511.5 111 L 512 125.5 L 391 245.5 L 392 230.5 L 511.5 111 Z " /><path fill="rgb(0,0,0)" stroke="rgb(0,0,0)" stroke-width="1" opacity="0" d="M 63.5 119 Q 66.1 118.2 65 121.5 L 71 126.5 L 0 196.5 L 0 182.5 L 63.5 119 Z " /><path fill="rgb(0,0,0)" stroke="rgb(0,0,0)" stroke-width="1" opacity="0" d="M 75.5 127 L 90 127.5 L 0 216.5 L 0 202.5 L 75.5 127 Z " /><path fill="rgb(0,0,0)" stroke="rgb(0,0,0)" stroke-width="1" opacity="0" d="M 95.5 127 L 108.5 127 L 109 128.5 L 0 236.5 L 0 222.5 L 95.5 127 Z " /><path fill="rgb(0,0,0)" stroke="rgb(0,0,0)" stroke-width="1" opacity="0" d="M 135.5 127 L 150 127.5 L 133 143.5 L 132 130.5 L 135.5 127 Z " /><path fill="rgb(0,0,0)" stroke="rgb(0,0,0)" stroke-width="1" opacity="0" d="M 155.5 127 L 170 127.5 L 135 161.5 L 134 148.5 L 155.5 127 Z " /><path fill="rgb(0,0,0)" stroke="rgb(0,0,0)" stroke-width="1" opacity="0" d="M 175.5 127 L 190 127.5 L 137.5 180 L 136 178.5 L 136 168.5 L 135 167.5 L 175.5 127 Z " /><path fill="rgb(0,0,0)" stroke="rgb(0,0,0)" stroke-width="1" opacity="0" d="M 195.5 127 L 210 127.5 L 138 198.5 L 137 185.5 L 195.5 127 Z " /><path fill="rgb(0,0,0)" stroke="rgb(0,0,0)" stroke-width="1" opacity="0" d="M 215.5 127 L 230 127.5 L 140 216.5 L 139 203.5 L 215.5 127 Z " /><path fill="rgb(0,0,0)" stroke="rgb(0,0,0)" stroke-width="1" opacity="0" d="M 235.5 127 L 250 127.5 L 142 234.5 Q 139.8 229.7 141 221.5 L 235.5 127 Z " /><path fill="rgb(0,0,0)" stroke="rgb(0,0,0)" stroke-width="1" opacity="0" d="M 255.5 127 L 270 127.5 L 144.5 253 L 143 253 L 142 240.5 L 255.5 127 Z " /><path fill="rgb(0,0,0)" stroke="rgb(0,0,0)" stroke-width="1" opacity="0" d="M 275.5 127 L 290 127.5 L 145 271.5 L 144 258.5 L 275.5 127 Z " /><path fill="rgb(0,0,0)" stroke="rgb(0,0,0)" stroke-width="1" opacity="0" d="M 295.5 127 L 310 127.5 L 147 289.5 L 146 276.5 L 295.5 127 Z " /><path fill="rgb(0,0,0)" stroke="rgb(0,0,0)" stroke-width="1" opacity="0" d="M 315.5 127 L 330 127.5 L 149 307.5 L 148 305.5 L 148 294.5 L 315.5 127 Z " /><path fill="rgb(0,0,0)" stroke="rgb(0,0,0)" stroke-width="1" opacity="0" d="M 335.5 127 L 350 127.5 L 151.5 326 L 150 326 L 149 313.5 L 335.5 127 Z " /><path fill="rgb(0,0,0)" stroke="rgb(0,0,0)" stroke-width="1" opacity="0" d="M 355.5 127 L 370 127.5 L 152 344.5 L 151 331.5 L 355.5 127 Z " /><path fill="rgb(0,0,0)" stroke="rgb(0,0,0)" stroke-width="1" opacity="0" d="M 375.5 127 L 380 127 L 380 134.5 L 379 138.5 L 154.5 363 Q 151.9 358.1 153 349.5 L 375.5 127 Z " /><path fill="rgb(0,0,0)" stroke="rgb(0,0,0)" stroke-width="1" opacity="0" d="M 403 127 L 410 127.5 L 402 134.5 Q 401.4 129.1 403 127 Z " /><path fill="rgb(0,0,0)" stroke="rgb(0,0,0)" stroke-width="1" opacity="0" d="M 415.5 127 L 430 127.5 L 400 156.5 L 401 141.5 L 415.5 127 Z " /><path fill="rgb(0,0,0)" stroke="rgb(0,0,0)" stroke-width="1" opacity="0" d="M 511.5 131 L 512 145.5 L 388 268.5 L 390 252.5 L 511.5 131 Z " /><path fill="rgb(0,0,0)" stroke="rgb(0,0,0)" stroke-width="1" opacity="0" d="M 109.5 133 L 111 146.5 L 0 256.5 L 0 242.5 L 109.5 133 Z " /><path fill="rgb(0,0,0)" stroke="rgb(0,0,0)" stroke-width="1" opacity="0" d="M 378.5 144 L 378 145.5 L 377 160.5 L 156.5 381 L 155 378.5 L 155 367.5 L 378.5 144 Z " /><path fill="rgb(0,0,0)" stroke="rgb(0,0,0)" stroke-width="1" opacity="0" d="M 111.5 151 L 113 164.5 L 0 276.5 L 0 262.5 L 111.5 151 Z " /><path fill="rgb(0,0,0)" stroke="rgb(0,0,0)" stroke-width="1" opacity="0" d="M 511.5 151 L 512 165.5 L 386 290.5 L 388 274.5 L 511.5 151 Z " /><path fill="rgb(0,0,0)" stroke="rgb(0,0,0)" stroke-width="1" opacity="0" d="M 375.5 167 L 376 174.5 Q 373.2 176.3 375 182.5 L 157.5 400 L 156 386.5 L 375.5 167 Z " /><path fill="rgb(0,0,0)" stroke="rgb(0,0,0)" stroke-width="1" opacity="0" d="M 112.5 170 L 114 171.5 Q 112.5 179 115 182.5 L 0 296.5 L 0 282.5 L 112.5 170 Z " /><path fill="rgb(0,0,0)" stroke="rgb(0,0,0)" stroke-width="1" opacity="0" d="M 511.5 171 L 512 185.5 L 384 312.5 L 385 297.5 L 511.5 171 Z " /><path fill="rgb(0,0,0)" stroke="rgb(0,0,0)" stroke-width="1" opacity="0" d="M 114.5 188 Q 117.1 192.9 116 201.5 L 0 316.5 L 0 302.5 L 114.5 188 Z " /><path fill="rgb(0,0,0)" stroke="rgb(0,0,0)" stroke-width="1" opacity="0" d="M 373.5 189 L 374 193.5 L 373 194.5 Q 374.5 202 372 205.5 L 159.5 418 L 158 404.5 L 373.5 189 Z " /><path fill="rgb(0,0,0)" stroke="rgb(0,0,0)" stroke-width="1" opacity="0" d="M 511.5 191 L 512 205.5 L 382 334.5 L 383 319.5 L 511.5 191 Z " /><path fill="rgb(0,0,0)" stroke="rgb(0,0,0)" stroke-width="1" opacity="0" d="M 116.5 206 L 118 219.5 L 0 336.5 L 0 322.5 L 116.5 206 Z " /><path fill="rgb(0,0,0)" stroke="rgb(0,0,0)" stroke-width="1" opacity="0" d="M 371.5 211 L 372 212.5 L 371 213.5 L 370 227.5 L 161.5 436 Q 158.9 431.1 160 422.5 L 371.5 211 Z " /><path fill="rgb(0,0,0)" stroke="rgb(0,0,0)" stroke-width="1" opacity="0" d="M 511.5 211 L 512 225.5 L 379 357.5 L 381 341.5 L 511.5 211 Z " /><path fill="rgb(0,0,0)" stroke="rgb(0,0,0)" stroke-width="1" opacity="0" d="M 118.5 224 L 120 237.5 L 0 356.5 L 0 342.5 L 118.5 224 Z " /><path fill="rgb(0,0,0)" stroke="rgb(0,0,0)" stroke-width="1" opacity="0" d="M 511.5 231 L 512 245.5 L 377 379.5 L 379 363.5 L 511.5 231 Z " /><path fill="rgb(0,0,0)" stroke="rgb(0,0,0)" stroke-width="1" opacity="0" d="M 368.5 234 L 369 243.5 Q 366.8 244.7 368 249.5 L 171.5 446 L 162 446 L 162 442.5 L 161 441.5 L 368.5 234 Z " /><path fill="rgb(0,0,0)" stroke="rgb(0,0,0)" stroke-width="1" opacity="0" d="M 119.5 243 L 121 245.5 L 121 256.5 L 0 376.5 L 0 362.5 L 119.5 243 Z " /><path fill="rgb(0,0,0)" stroke="rgb(0,0,0)" stroke-width="1" opacity="0" d="M 511.5 251 L 512 265.5 L 375 401.5 L 376 386.5 L 511.5 251 Z " /><path fill="rgb(0,0,0)" stroke="rgb(0,0,0)" stroke-width="1" opacity="0" d="M 366.5 256 L 367 263.5 Q 364.3 265.2 366 271.5 L 191.5 446 L 177 445.5 L 366.5 256 Z " /><path fill="rgb(0,0,0)" stroke="rgb(0,0,0)" stroke-width="1" opacity="0" d="M 121.5 261 L 123 266.5 L 123 274.5 L 0 396.5 L 0 382.5 L 121.5 261 Z " /><path fill="rgb(0,0,0)" stroke="rgb(0,0,0)" stroke-width="1" opacity="0" d="M 511.5 271 L 512 285.5 L 372 424.5 L 373 423.5 L 374 408.5 L 511.5 271 Z " /><path fill="rgb(0,0,0)" stroke="rgb(0,0,0)" stroke-width="1" opacity="0" d="M 364.5 278 L 365 282.5 L 364 283.5 Q 365.5 291 363 294.5 L 211.5 446 L 197 445.5 L 364.5 278 Z " /><path fill="rgb(0,0,0)" stroke="rgb(0,0,0)" stroke-width="1" opacity="0" d="M 123.5 279 L 125 292.5 L 0 416.5 L 0 402.5 L 123.5 279 Z " /><path fill="rgb(0,0,0)" stroke="rgb(0,0,0)" stroke-width="1" opacity="0" d="M 511.5 291 L 512 305.5 L 370 446.5 L 372 430.5 L 511.5 291 Z " /><path fill="rgb(0,0,0)" stroke="rgb(0,0,0)" stroke-width="1" opacity="0" d="M 124.5 298 L 126 298.5 L 126 307.5 L 127 310.5 L 0 436.5 L 0 422.5 L 124.5 298 Z " /><path fill="rgb(0,0,0)" stroke="rgb(0,0,0)" stroke-width="1" opacity="0" d="M 362.5 300 L 363 302.5 L 362 303.5 L 361 316.5 L 231.5 446 L 217 445.5 L 362.5 300 Z " /><path fill="rgb(0,0,0)" stroke="rgb(0,0,0)" stroke-width="1" opacity="0" d="M 511.5 311 L 512 325.5 L 325.5 512 L 311.5 512 L 354.5 468 Q 365.6 469.6 368 462.5 L 370 452.5 L 511.5 311 Z " /><path fill="rgb(0,0,0)" stroke="rgb(0,0,0)" stroke-width="1" opacity="0" d="M 126.5 316 Q 129.1 320.9 128 329.5 L 0 456.5 L 0 442.5 L 126.5 316 Z " /><path fill="rgb(0,0,0)" stroke="rgb(0,0,0)" stroke-width="1" opacity="0" d="M 359.5 323 L 360 330.5 Q 357.3 332.3 359 338.5 L 251.5 446 L 237 445.5 L 359.5 323 Z " /><path fill="rgb(0,0,0)" stroke="rgb(0,0,0)" stroke-width="1" opacity="0" d="M 511.5 331 L 512 345.5 L 345.5 512 L 331.5 512 L 511.5 331 Z " /><path fill="rgb(0,0,0)" stroke="rgb(0,0,0)" stroke-width="1" opacity="0" d="M 128.5 334 L 130 347.5 L 0 476.5 L 0 462.5 L 128.5 334 Z " /><path fill="rgb(0,0,0)" stroke="rgb(0,0,0)" stroke-width="1" opacity="0" d="M 357.5 345 L 358 351.5 L 357 352.5 L 357 360.5 L 271.5 446 L 257 445.5 L 357.5 345 Z " /><path fill="rgb(0,0,0)" stroke="rgb(0,0,0)" stroke-width="1" opacity="0" d="M 511.5 351 L 512 365.5 L 365.5 512 L 351.5 512 L 511.5 351 Z " /><path fill="rgb(0,0,0)" stroke="rgb(0,0,0)" stroke-width="1" opacity="0" d="M 130.5 352 L 132 365.5 L 0 496.5 L 0 482.5 L 130.5 352 Z " /><path fill="rgb(0,0,0)" stroke="rgb(0,0,0)" stroke-width="1" opacity="0" d="M 355.5 367 L 356 370.5 L 355 371.5 Q 356.7 379.7 354 383.5 L 291.5 446 L 277 445.5 L 355.5 367 Z " /><path fill="rgb(0,0,0)" stroke="rgb(0,0,0)" stroke-width="1" opacity="0" d="M 131.5 371 L 133 372.5 Q 131.5 380 134 383.5 L 5.5 512 L 0 512 L 0 502.5 L 131.5 371 Z " /><path fill="rgb(0,0,0)" stroke="rgb(0,0,0)" stroke-width="1" opacity="0" d="M 511.5 371 L 512 385.5 L 385.5 512 L 371.5 512 L 511.5 371 Z " /><path fill="rgb(0,0,0)" stroke="rgb(0,0,0)" stroke-width="1" opacity="0" d="M 133.5 389 Q 136.1 393.9 135 402.5 L 25.5 512 L 11.5 512 L 133.5 389 Z " /><path fill="rgb(0,0,0)" stroke="rgb(0,0,0)" stroke-width="1" opacity="0" d="M 353.5 389 L 354 390.5 L 353 391.5 L 352 405.5 L 311.5 446 L 297 445.5 L 353.5 389 Z " /><path fill="rgb(0,0,0)" stroke="rgb(0,0,0)" stroke-width="1" opacity="0" d="M 511.5 391 L 512 405.5 L 405.5 512 L 391.5 512 L 511.5 391 Z " /><path fill="rgb(0,0,0)" stroke="rgb(0,0,0)" stroke-width="1" opacity="0" d="M 135.5 407 L 137 420.5 L 45.5 512 L 31.5 512 L 135.5 407 Z " /><path fill="rgb(0,0,0)" stroke="rgb(0,0,0)" stroke-width="1" opacity="0" d="M 511.5 411 L 512 425.5 L 425.5 512 L 411.5 512 L 511.5 411 Z " /><path fill="rgb(0,0,0)" stroke="rgb(0,0,0)" stroke-width="1" opacity="0" d="M 350.5 412 L 351 420.5 Q 348.5 422 350 427.5 L 331.5 446 L 317 445.5 L 350.5 412 Z " /><path fill="rgb(0,0,0)" stroke="rgb(0,0,0)" stroke-width="1" opacity="0" d="M 137.5 425 L 139 438.5 L 65.5 512 L 51.5 512 L 137.5 425 Z " /><path fill="rgb(0,0,0)" stroke="rgb(0,0,0)" stroke-width="1" opacity="0" d="M 511.5 431 L 512 445.5 L 445.5 512 L 431.5 512 L 511.5 431 Z " /><path fill="rgb(0,0,0)" stroke="rgb(0,0,0)" stroke-width="1" opacity="0" d="M 348.5 434 L 349 440.5 L 348 446 L 337 445.5 L 348.5 434 Z " /><path fill="rgb(0,0,0)" stroke="rgb(0,0,0)" stroke-width="1" opacity="0" d="M 138.5 444 Q 141.5 448.5 140 457.5 L 85.5 512 L 71.5 512 L 138.5 444 Z " /><path fill="rgb(0,0,0)" stroke="rgb(0,0,0)" stroke-width="1" opacity="0" d="M 511.5 451 L 512 465.5 L 465.5 512 L 451.5 512 L 511.5 451 Z " /><path fill="rgb(0,0,0)" stroke="rgb(0,0,0)" stroke-width="1" opacity="0" d="M 140.5 462 L 143 463.5 L 144.5 466 L 149 468.5 L 105.5 512 L 91.5 512 L 140.5 462 Z " /><path fill="rgb(0,0,0)" stroke="rgb(0,0,0)" stroke-width="1" opacity="0" d="M 154.5 468 L 169 468.5 L 125.5 512 L 111.5 512 L 154.5 468 Z " /><path fill="rgb(0,0,0)" stroke="rgb(0,0,0)" stroke-width="1" opacity="0" d="M 174.5 468 L 189 468.5 L 145.5 512 L 131.5 512 L 174.5 468 Z " /><path fill="rgb(0,0,0)" stroke="rgb(0,0,0)" stroke-width="1" opacity="0" d="M 194.5 468 L 209 468.5 L 165.5 512 L 151.5 512 L 194.5 468 Z " /><path fill="rgb(0,0,0)" stroke="rgb(0,0,0)" stroke-width="1" opacity="0" d="M 214.5 468 L 229 468.5 L 185.5 512 L 171.5 512 L 214.5 468 Z " /><path fill="rgb(0,0,0)" stroke="rgb(0,0,0)" stroke-width="1" opacity="0" d="M 234.5 468 L 249 468.5 L 205.5 512 L 191.5 512 L 234.5 468 Z " /><path fill="rgb(0,0,0)" stroke="rgb(0,0,0)" stroke-width="1" opacity="0" d="M 254.5 468 L 269 468.5 L 225.5 512 L 211.5 512 L 254.5 468 Z " /><path fill="rgb(0,0,0)" stroke="rgb(0,0,0)" stroke-width="1" opacity="0" d="M 274.5 468 L 289 468.5 L 245.5 512 L 231.5 512 L 274.5 468 Z " /><path fill="rgb(0,0,0)" stroke="rgb(0,0,0)" stroke-width="1" opacity="0" d="M 294.5 468 L 309 468.5 L 265.5 512 L 251.5 512 L 294.5 468 Z " /><path fill="rgb(0,0,0)" stroke="rgb(0,0,0)" stroke-width="1" opacity="0" d="M 314.5 468 L 329 468.5 L 285.5 512 L 271.5 512 L 314.5 468 Z " /><path fill="rgb(0,0,0)" stroke="rgb(0,0,0)" stroke-width="1" opacity="0" d="M 334.5 468 L 349 468.5 L 305.5 512 L 291.5 512 L 334.5 468 Z " /><path fill="rgb(0,0,0)" stroke="rgb(0,0,0)" stroke-width="1" opacity="0" d="M 511.5 471 L 512 485.5 L 485.5 512 L 471.5 512 L 511.5 471 Z " /><path fill="rgb(0,0,0)" stroke="rgb(0,0,0)" stroke-width="1" opacity="0" d="M 511.5 491 L 512 505.5 L 505.5 512 L 491.5 512 L 511.5 491 Z " /><path fill="rgb(45,45,45)" stroke="rgb(45,45,45)" stroke-width="1" opacity="0.027450980392156862" d="M 0 0 L 2 0.5 L 0 1.5 L 0 0 Z " /><path fill="rgb(45,45,45)" stroke="rgb(45,45,45)" stroke-width="1" opacity="0.027450980392156862" d="M 17.5 0 L 22 0.5 L 0 21.5 L 0 17.5 L 17.5 0 Z " /><path fill="rgb(45,45,45)" stroke="rgb(45,45,45)" stroke-width="1" opacity="0.027450980392156862" d="M 37.5 0 L 42 0.5 L 0 41.5 L 0 37.5 L 37.5 0 Z " /><path fill="rgb(45,45,45)" stroke="rgb(45,45,45)" stroke-width="1" opacity="0.027450980392156862" d="M 57.5 0 L 62 0.5 L 0 61.5 L 0 57.5 L 57.5 0 Z " /><path fill="rgb(45,45,45)" stroke="rgb(45,45,45)" stroke-width="1" opacity="0.027450980392156862" d="M 77.5 0 L 82 0.5 L 0 81.5 L 0 77.5 L 77.5 0 Z " /><path fill="rgb(45,45,45)" stroke="rgb(45,45,45)" stroke-width="1" opacity="0.027450980392156862" d="M 97.5 0 L 102 0.5 L 0 101.5 L 0 97.5 L 97.5 0 Z " /><path fill="rgb(45,45,45)" stroke="rgb(45,45,45)" stroke-width="1" opacity="0.027450980392156862" d="M 117.5 0 L 122 0.5 L 0 121.5 L 0 117.5 L 117.5 0 Z " /><path fill="rgb(45,45,45)" stroke="rgb(45,45,45)" stroke-width="1" opacity="0.027450980392156862" d="M 137.5 0 L 142 0.5 L 0 141.5 L 0 137.5 L 137.5 0 Z " /><path fill="rgb(45,45,45)" stroke="rgb(45,45,45)" stroke-width="1" opacity="0.027450980392156862" d="M 157.5 0 L 162 0.5 L 0 161.5 L 0 157.5 L 157.5 0 Z " /><path fill="rgb(45,45,45)" stroke="rgb(45,45,45)" stroke-width="1" opacity="0.027450980392156862" d="M 177.5 0 L 182 0.5 L 79.5 104 L 93.5 104 L 197.5 0 L 201.5 0 L 99.5 104 L 113.5 104 L 217.5 0 L 221.5 0 L 119.5 104 L 133.5 104 L 237.5 0 L 241.5 0 L 139.5 104 L 153.5 104 L 187.5 70 L 188 74.5 L 159.5 104 L 173.5 104 L 186.5 91 L 187 95.5 L 179.5 104 L 187 104.5 L 73.5 105 L 177.5 0 Z " /><path fill="rgb(45,45,45)" stroke="rgb(45,45,45)" stroke-width="1" opacity="0.027450980392156862" d="M 257.5 0 L 262 0.5 L 218.5 44 L 214.5 44 L 257.5 0 Z " /><path fill="rgb(45,45,45)" stroke="rgb(45,45,45)" stroke-width="1" opacity="0.027450980392156862" d="M 277.5 0 L 282 0.5 L 238.5 44 L 234.5 44 L 277.5 0 Z " /><path fill="rgb(45,45,45)" stroke="rgb(45,45,45)" stroke-width="1" opacity="0.027450980392156862" d="M 297.5 0 L 302 0.5 L 258.5 44 L 254.5 44 L 297.5 0 Z " /><path fill="rgb(45,45,45)" stroke="rgb(45,45,45)" stroke-width="1" opacity="0.027450980392156862" d="M 317.5 0 L 322 0.5 L 278.5 44 L 274.5 44 L 317.5 0 Z " /><path fill="rgb(45,45,45)" stroke="rgb(45,45,45)" stroke-width="1" opacity="0.027450980392156862" d="M 337.5 0 L 342 0.5 L 299.5 44 L 301 44.5 L 299.5 45 L 294 43.5 L 337.5 0 Z " /><path fill="rgb(45,45,45)" stroke="rgb(45,45,45)" stroke-width="1" opacity="0.027450980392156862" d="M 357.5 0 L 362 0.5 L 312.5 51 L 310 47.5 L 357.5 0 Z " /><path fill="rgb(45,45,45)" stroke="rgb(45,45,45)" stroke-width="1" opacity="0.027450980392156862" d="M 377.5 0 L 382 0.5 L 321.5 62 L 318 56.5 L 319.5 57 L 377.5 0 Z " /><path fill="rgb(45,45,45)" stroke="rgb(45,45,45)" stroke-width="1" opacity="0.027450980392156862" d="M 397.5 0 L 402 0.5 L 325 76.5 L 324 71.5 L 325.5 72 L 397.5 0 Z " /><path fill="rgb(45,45,45)" stroke="rgb(45,45,45)" stroke-width="1" opacity="0.027450980392156862" d="M 417.5 0 L 422 0.5 L 325 96.5 L 325 92.5 L 417.5 0 Z " /><path fill="rgb(45,45,45)" stroke="rgb(45,45,45)" stroke-width="1" opacity="0.027450980392156862" d="M 437.5 0 L 442 0.5 L 339.5 104 L 353.5 104 L 457.5 0 L 461.5 0 L 359.5 104 L 373.5 104 L 477.5 0 L 481.5 0 L 379.5 104 L 393.5 104 L 497.5 0 L 501.5 0 L 399.5 104 L 413.5 104 L 511.5 6 L 512 10.5 L 419.5 104 L 433.5 104 L 511.5 26 L 512 30.5 L 437.5 105 L 325.5 105 L 325.5 104 L 333.5 104 L 437.5 0 Z " /><path fill="rgb(45,45,45)" stroke="rgb(45,45,45)" stroke-width="1" opacity="0.027450980392156862" d="M 511.5 46 L 512 50.5 L 448.5 114 L 447 112.5 L 447 110.5 L 511.5 46 Z " /><path fill="rgb(45,45,45)" stroke="rgb(45,45,45)" stroke-width="1" opacity="0.027450980392156862" d="M 203.5 47 L 202.5 49 L 203.5 47 Z " /><path fill="rgb(45,45,45)" stroke="rgb(45,45,45)" stroke-width="1" opacity="0.027450980392156862" d="M 200.5 49 L 199.5 51 L 200.5 49 Z " /><path fill="rgb(45,45,45)" stroke="rgb(45,45,45)" stroke-width="1" opacity="0.027450980392156862" d="M 193.5 56 L 192.5 58 L 193.5 56 Z " /><path fill="rgb(45,45,45)" stroke="rgb(45,45,45)" stroke-width="1" opacity="0.027450980392156862" d="M 218.5 65 L 293.5 65 L 296 66.5 L 259.5 104 L 273.5 104 L 302.5 75 L 303 79.5 L 279.5 104 L 293.5 104 L 302.5 95 L 303 99.5 L 299.5 104 L 303 104.5 L 209.5 105 L 209.5 104 L 213.5 104 L 251 66.5 L 236.5 66 L 209 92.5 L 209 88.5 L 231 66.5 L 218.5 66 L 218.5 65 Z M 257 66 L 220 104 L 234 104 L 271 67 L 257 66 Z M 277 66 L 240 104 L 254 104 L 291 67 L 277 66 Z " /><path fill="rgb(45,45,45)" stroke="rgb(45,45,45)" stroke-width="1" opacity="0.027450980392156862" d="M 214.5 66 L 216 66.5 L 209.5 74 L 209 72.5 L 214.5 66 Z " /><path fill="rgb(45,45,45)" stroke="rgb(45,45,45)" stroke-width="1" opacity="0.027450980392156862" d="M 511.5 66 L 512 70.5 L 397 185.5 L 396.5 188 L 396 184.5 L 397 180.5 L 511.5 66 Z " /><path fill="rgb(45,45,45)" stroke="rgb(45,45,45)" stroke-width="1" opacity="0.027450980392156862" d="M 511.5 86 L 512 90.5 L 394 207.5 L 395 202.5 L 511.5 86 Z " /><path fill="rgb(45,45,45)" stroke="rgb(45,45,45)" stroke-width="1" opacity="0.027450980392156862" d="M 68.5 106 L 66.5 109 L 68.5 106 Z " /><path fill="rgb(45,45,45)" stroke="rgb(45,45,45)" stroke-width="1" opacity="0.027450980392156862" d="M 511.5 106 L 512 110.5 L 392 229.5 Q 390.8 223.4 393.5 224 L 511.5 106 Z " /><path fill="rgb(45,45,45)" stroke="rgb(45,45,45)" stroke-width="1" opacity="0.027450980392156862" d="M 444.5 107 L 445.5 109 L 444.5 107 Z " /><path fill="rgb(45,45,45)" stroke="rgb(45,45,45)" stroke-width="1" opacity="0.027450980392156862" d="M 63.5 114 L 65 118.5 L 0.5 182 L 0 177.5 L 63.5 114 Z " /><path fill="rgb(45,45,45)" stroke="rgb(45,45,45)" stroke-width="1" opacity="0.027450980392156862" d="M 65.5 121 L 68.5 125 L 65.5 121 Z " /><path fill="rgb(45,45,45)" stroke="rgb(45,45,45)" stroke-width="1" opacity="0.027450980392156862" d="M 445.5 122 L 443.5 125 L 445.5 122 Z " /><path fill="rgb(45,45,45)" stroke="rgb(45,45,45)" stroke-width="1" opacity="0.027450980392156862" d="M 70.5 125 L 71.5 126 L 110 126 L 110 132.5 L 0.5 242 L 0 237.5 L 109 128.5 L 109 127 L 95.5 127 L 0.5 222 L 0 217.5 L 89.5 127 L 75.5 127 L 0.5 202 L 0 197.5 L 71 126.5 L 70.5 125 Z " /><path fill="rgb(45,45,45)" stroke="rgb(45,45,45)" stroke-width="1" opacity="0.027450980392156862" d="M 132.5 126 L 197 126.5 L 137.5 185 L 136 179.5 L 137.5 180 L 190 127.5 L 175.5 127 L 135 166.5 L 134 158.5 L 135 158.5 L 135.5 162 L 169.5 127 L 155.5 127 L 134 148.5 L 133.5 151 L 133 144.5 L 149.5 127 L 135.5 127 L 131 130 L 132.5 126 Z " /><path fill="rgb(45,45,45)" stroke="rgb(45,45,45)" stroke-width="1" opacity="0.027450980392156862" d="M 315.5 126 L 379.5 126 L 381 127.5 L 380.5 129 L 380 127 L 375.5 127 L 153 349.5 L 152.5 351 L 152 345.5 L 369.5 127 L 355.5 127 L 151.5 331 Q 149 329.8 150 326 L 151.5 326 L 350 127.5 L 335.5 127 L 149 312.5 L 148 306.5 L 149 306.5 L 149.5 308 L 329.5 127 L 315.5 127 L 148 294.5 L 147.5 299 L 147 290.5 L 310.5 127 L 315.5 126 Z " /><path fill="rgb(45,45,45)" stroke="rgb(45,45,45)" stroke-width="1" opacity="0.027450980392156862" d="M 403.5 126 L 439 126.5 L 435.5 127 L 399.5 163 L 399 155.5 L 400 155.5 L 400.5 157 L 429.5 127 L 415.5 127 L 401.5 141 L 401 135 L 410 127.5 L 403 127 L 402.5 129 L 402 127.5 L 403.5 126 Z " /><path fill="rgb(45,45,45)" stroke="rgb(45,45,45)" stroke-width="1" opacity="0.027450980392156862" d="M 511.5 126 L 512 130.5 L 390 251.5 L 390.5 243 L 391.5 246 L 511.5 126 Z " /><path fill="rgb(45,45,45)" stroke="rgb(45,45,45)" stroke-width="1" opacity="0.027450980392156862" d="M 210.5 127 L 215 127.5 L 138 203.5 L 138 199.5 L 210.5 127 Z " /><path fill="rgb(45,45,45)" stroke="rgb(45,45,45)" stroke-width="1" opacity="0.027450980392156862" d="M 230.5 127 L 235 127.5 L 141 221.5 L 140.5 225 L 140 217.5 L 230.5 127 Z " /><path fill="rgb(45,45,45)" stroke="rgb(45,45,45)" stroke-width="1" opacity="0.027450980392156862" d="M 250.5 127 L 255 127.5 L 142 239.5 L 141 232.5 L 142 232.5 L 142.5 235 L 250.5 127 Z " /><path fill="rgb(45,45,45)" stroke="rgb(45,45,45)" stroke-width="1" opacity="0.027450980392156862" d="M 270.5 127 L 275 127.5 L 144 257.5 L 143 253 L 144.5 253 L 270.5 127 Z " /><path fill="rgb(45,45,45)" stroke="rgb(45,45,45)" stroke-width="1" opacity="0.027450980392156862" d="M 290.5 127 L 295 127.5 L 145.5 278 L 145 272.5 L 290.5 127 Z " /><path fill="rgb(45,45,45)" stroke="rgb(45,45,45)" stroke-width="1" opacity="0.027450980392156862" d="M 110.5 135 L 111 138.5 L 110 138.5 L 110.5 135 Z " /><path fill="rgb(45,45,45)" stroke="rgb(45,45,45)" stroke-width="1" opacity="0.027450980392156862" d="M 379.5 135 L 380 138.5 L 378 144.5 L 379 148.5 L 378 148.5 L 377.5 145 L 155 367.5 L 154.5 373 L 154 363.5 L 379 138.5 L 379.5 135 Z " /><path fill="rgb(45,45,45)" stroke="rgb(45,45,45)" stroke-width="1" opacity="0.027450980392156862" d="M 132.5 137 L 133 140.5 L 132 140.5 L 132.5 137 Z " /><path fill="rgb(45,45,45)" stroke="rgb(45,45,45)" stroke-width="1" opacity="0.027450980392156862" d="M 400.5 145 L 401 148.5 L 400 148.5 L 400.5 145 Z " /><path fill="rgb(45,45,45)" stroke="rgb(45,45,45)" stroke-width="1" opacity="0.027450980392156862" d="M 111.5 146 L 112 150.5 L 0 261.5 L 0 257.5 L 111.5 146 Z " /><path fill="rgb(45,45,45)" stroke="rgb(45,45,45)" stroke-width="1" opacity="0.027450980392156862" d="M 511.5 146 L 512 150.5 L 387.5 276 L 387 273.5 L 388 269.5 L 511.5 146 Z " /><path fill="rgb(45,45,45)" stroke="rgb(45,45,45)" stroke-width="1" opacity="0.027450980392156862" d="M 377.5 154 L 378 158.5 L 377 158.5 L 377.5 154 Z " /><path fill="rgb(45,45,45)" stroke="rgb(45,45,45)" stroke-width="1" opacity="0.027450980392156862" d="M 112.5 157 L 113 159.5 L 112 159.5 L 112.5 157 Z " /><path fill="rgb(45,45,45)" stroke="rgb(45,45,45)" stroke-width="1" opacity="0.027450980392156862" d="M 376.5 161 L 377 167.5 L 375.5 167 L 156 385.5 L 155 379.5 L 156 379.5 L 156.5 381 L 376.5 161 Z " /><path fill="rgb(45,45,45)" stroke="rgb(45,45,45)" stroke-width="1" opacity="0.027450980392156862" d="M 112.5 165 L 114 170.5 L 112.5 170 L 0 281.5 L 0 277.5 L 112.5 165 Z " /><path fill="rgb(45,45,45)" stroke="rgb(45,45,45)" stroke-width="1" opacity="0.027450980392156862" d="M 398.5 165 L 399 167.5 L 398 167.5 L 398.5 165 Z " /><path fill="rgb(45,45,45)" stroke="rgb(45,45,45)" stroke-width="1" opacity="0.027450980392156862" d="M 511.5 166 L 512 170.5 L 385 296.5 L 386 291.5 L 511.5 166 Z " /><path fill="rgb(45,45,45)" stroke="rgb(45,45,45)" stroke-width="1" opacity="0.027450980392156862" d="M 135.5 168 L 136 171.5 L 135 171.5 L 135.5 168 Z " /><path fill="rgb(45,45,45)" stroke="rgb(45,45,45)" stroke-width="1" opacity="0.027450980392156862" d="M 375.5 175 L 376 177.5 L 375 177.5 L 375.5 175 Z " /><path fill="rgb(45,45,45)" stroke="rgb(45,45,45)" stroke-width="1" opacity="0.027450980392156862" d="M 397.5 175 L 398 177.5 L 397 177.5 L 397.5 175 Z " /><path fill="rgb(45,45,45)" stroke="rgb(45,45,45)" stroke-width="1" opacity="0.027450980392156862" d="M 114.5 178 L 115 180.5 L 114 180.5 L 114.5 178 Z " /><path fill="rgb(45,45,45)" stroke="rgb(45,45,45)" stroke-width="1" opacity="0.027450980392156862" d="M 114.5 183 L 116 191.5 L 115 191.5 L 114.5 188 L 0 301.5 L 0 297.5 L 114.5 183 Z " /><path fill="rgb(45,45,45)" stroke="rgb(45,45,45)" stroke-width="1" opacity="0.027450980392156862" d="M 374.5 183 L 375 187.5 L 158.5 404 L 157 404 L 157 400.5 L 374.5 183 Z " /><path fill="rgb(45,45,45)" stroke="rgb(45,45,45)" stroke-width="1" opacity="0.027450980392156862" d="M 511.5 186 L 512 190.5 L 383 318.5 L 383.5 312 L 384.5 313 L 511.5 186 Z " /><path fill="rgb(45,45,45)" stroke="rgb(45,45,45)" stroke-width="1" opacity="0.027450980392156862" d="M 137.5 190 L 138 192.5 L 137 192.5 L 137.5 190 Z " /><path fill="rgb(45,45,45)" stroke="rgb(45,45,45)" stroke-width="1" opacity="0.027450980392156862" d="M 373.5 194 L 374 197.5 L 373 197.5 L 373.5 194 Z " /><path fill="rgb(45,45,45)" stroke="rgb(45,45,45)" stroke-width="1" opacity="0.027450980392156862" d="M 395.5 194 L 396 197.5 L 395 197.5 L 395.5 194 Z " /><path fill="rgb(45,45,45)" stroke="rgb(45,45,45)" stroke-width="1" opacity="0.027450980392156862" d="M 116.5 199 L 117 205.5 L 0 321.5 L 0 317.5 L 116 201.5 L 116.5 199 Z " /><path fill="rgb(45,45,45)" stroke="rgb(45,45,45)" stroke-width="1" opacity="0.027450980392156862" d="M 372.5 204 L 373 207.5 L 372 210.5 L 160 422.5 L 159.5 425 L 159 418.5 L 372.5 204 Z " /><path fill="rgb(45,45,45)" stroke="rgb(45,45,45)" stroke-width="1" opacity="0.027450980392156862" d="M 511.5 206 L 512 210.5 L 381 340.5 L 381.5 332 L 382.5 335 L 511.5 206 Z " /><path fill="rgb(45,45,45)" stroke="rgb(45,45,45)" stroke-width="1" opacity="0.027450980392156862" d="M 117.5 209 L 118 212.5 L 117 212.5 L 117.5 209 Z " /><path fill="rgb(45,45,45)" stroke="rgb(45,45,45)" stroke-width="1" opacity="0.027450980392156862" d="M 139.5 211 L 140 213.5 L 139 213.5 L 139.5 211 Z " /><path fill="rgb(45,45,45)" stroke="rgb(45,45,45)" stroke-width="1" opacity="0.027450980392156862" d="M 371.5 213 L 372 217.5 L 371 217.5 L 371.5 213 Z " /><path fill="rgb(45,45,45)" stroke="rgb(45,45,45)" stroke-width="1" opacity="0.027450980392156862" d="M 393.5 214 L 394 216.5 L 393 216.5 L 393.5 214 Z " /><path fill="rgb(45,45,45)" stroke="rgb(45,45,45)" stroke-width="1" opacity="0.027450980392156862" d="M 117.5 220 Q 120.5 219.1 119 223.5 L 0 341.5 L 0 337.5 L 117.5 220 Z " /><path fill="rgb(45,45,45)" stroke="rgb(45,45,45)" stroke-width="1" opacity="0.027450980392156862" d="M 370.5 224 L 371 226.5 L 370 226.5 L 370.5 224 Z " /><path fill="rgb(45,45,45)" stroke="rgb(45,45,45)" stroke-width="1" opacity="0.027450980392156862" d="M 511.5 226 L 512 230.5 L 378.5 365 L 378 361.5 L 379 358.5 L 511.5 226 Z " /><path fill="rgb(45,45,45)" stroke="rgb(45,45,45)" stroke-width="1" opacity="0.027450980392156862" d="M 369.5 228 L 370 236.5 L 369 236.5 L 368.5 234 L 161 440.5 L 160 432.5 L 161 432.5 L 161.5 436 L 369.5 228 Z " /><path fill="rgb(45,45,45)" stroke="rgb(45,45,45)" stroke-width="1" opacity="0.027450980392156862" d="M 119.5 231 L 120 233.5 L 119 233.5 L 119.5 231 Z " /><path fill="rgb(45,45,45)" stroke="rgb(45,45,45)" stroke-width="1" opacity="0.027450980392156862" d="M 391.5 234 L 392 236.5 L 391 236.5 L 391.5 234 Z " /><path fill="rgb(45,45,45)" stroke="rgb(45,45,45)" stroke-width="1" opacity="0.027450980392156862" d="M 119.5 238 L 121 244.5 L 120 244.5 L 119.5 243 L 0 361.5 L 0 357.5 L 119.5 238 Z " /><path fill="rgb(45,45,45)" stroke="rgb(45,45,45)" stroke-width="1" opacity="0.027450980392156862" d="M 142.5 243 L 143 245.5 L 142 245.5 L 142.5 243 Z " /><path fill="rgb(45,45,45)" stroke="rgb(45,45,45)" stroke-width="1" opacity="0.027450980392156862" d="M 368.5 244 L 369 246.5 L 368 246.5 L 368.5 244 Z " /><path fill="rgb(45,45,45)" stroke="rgb(45,45,45)" stroke-width="1" opacity="0.027450980392156862" d="M 511.5 246 L 512 250.5 L 376 385.5 L 376 381.5 L 511.5 246 Z " /><path fill="rgb(45,45,45)" stroke="rgb(45,45,45)" stroke-width="1" opacity="0.027450980392156862" d="M 367.5 250 L 368 256.5 L 366.5 256 L 177 445.5 L 191.5 446 L 366 272.5 L 365 277.5 L 197 445.5 L 211.5 446 L 363.5 293 L 364 295.5 L 363 299.5 L 217 445.5 L 231.5 446 L 361 317.5 L 360.5 326 L 359.5 323 L 237.5 446 L 251.5 446 L 358.5 339 L 359 345 L 357.5 345 L 257 445.5 L 271.5 446 L 357 361.5 L 356 366.5 L 277 445.5 L 291.5 446 L 354.5 382 L 355 384.5 L 354 388.5 L 297 445.5 L 311.5 446 L 352 406.5 L 351.5 414 L 350.5 412 L 317.5 446 L 331.5 446 L 349.5 428 L 350 434 L 348.5 434 L 337 445.5 L 348 446.5 L 162.5 447 Q 160.3 446.3 161 442.5 L 162 442.5 L 162 446 L 171.5 446 L 367.5 250 Z " /><path fill="rgb(45,45,45)" stroke="rgb(45,45,45)" stroke-width="1" opacity="0.027450980392156862" d="M 121.5 252 L 122 260.5 L 0 381.5 L 0 377.5 L 121 256.5 L 121.5 252 Z " /><path fill="rgb(45,45,45)" stroke="rgb(45,45,45)" stroke-width="1" opacity="0.027450980392156862" d="M 389.5 253 L 390 256.5 L 389 256.5 L 389.5 253 Z " /><path fill="rgb(45,45,45)" stroke="rgb(45,45,45)" stroke-width="1" opacity="0.027450980392156862" d="M 122.5 262 L 123 265.5 L 122 265.5 L 122.5 262 Z " /><path fill="rgb(45,45,45)" stroke="rgb(45,45,45)" stroke-width="1" opacity="0.027450980392156862" d="M 144.5 263 L 145 266.5 L 144 266.5 L 144.5 263 Z " /><path fill="rgb(45,45,45)" stroke="rgb(45,45,45)" stroke-width="1" opacity="0.027450980392156862" d="M 388.5 263 L 389 266.5 L 388 266.5 L 388.5 263 Z " /><path fill="rgb(45,45,45)" stroke="rgb(45,45,45)" stroke-width="1" opacity="0.027450980392156862" d="M 366.5 264 L 367 266.5 L 366 266.5 L 366.5 264 Z " /><path fill="rgb(45,45,45)" stroke="rgb(45,45,45)" stroke-width="1" opacity="0.027450980392156862" d="M 511.5 266 L 512 270.5 L 374 407.5 L 374.5 400 L 375.5 402 L 511.5 266 Z " /><path fill="rgb(45,45,45)" stroke="rgb(45,45,45)" stroke-width="1" opacity="0.027450980392156862" d="M 123.5 273 L 124 278.5 L 0 401.5 L 0 397.5 L 123.5 273 Z " /><path fill="rgb(45,45,45)" stroke="rgb(45,45,45)" stroke-width="1" opacity="0.027450980392156862" d="M 124.5 283 L 125 286.5 L 124 286.5 L 124.5 283 Z " /><path fill="rgb(45,45,45)" stroke="rgb(45,45,45)" stroke-width="1" opacity="0.027450980392156862" d="M 364.5 283 L 365 285.5 L 364 285.5 L 364.5 283 Z " /><path fill="rgb(45,45,45)" stroke="rgb(45,45,45)" stroke-width="1" opacity="0.027450980392156862" d="M 386.5 283 L 387 285.5 L 386 285.5 L 386.5 283 Z " /><path fill="rgb(45,45,45)" stroke="rgb(45,45,45)" stroke-width="1" opacity="0.027450980392156862" d="M 146.5 284 L 147 287.5 L 146 287.5 L 146.5 284 Z " /><path fill="rgb(45,45,45)" stroke="rgb(45,45,45)" stroke-width="1" opacity="0.027450980392156862" d="M 511.5 286 L 512 290.5 L 372 430.5 L 371.5 434 L 371 430.5 L 373 424.5 L 372 420.5 L 373 420.5 L 373.5 424 L 511.5 286 Z " /><path fill="rgb(45,45,45)" stroke="rgb(45,45,45)" stroke-width="1" opacity="0.027450980392156862" d="M 124.5 293 Q 127 294.2 126 298 L 124.5 298 L 0.5 422 L 0 417.5 L 124.5 293 Z " /><path fill="rgb(45,45,45)" stroke="rgb(45,45,45)" stroke-width="1" opacity="0.027450980392156862" d="M 384.5 302 L 385 304.5 L 384 304.5 L 384.5 302 Z " /><path fill="rgb(45,45,45)" stroke="rgb(45,45,45)" stroke-width="1" opacity="0.027450980392156862" d="M 362.5 303 L 363 305.5 L 362 305.5 L 362.5 303 Z " /><path fill="rgb(45,45,45)" stroke="rgb(45,45,45)" stroke-width="1" opacity="0.027450980392156862" d="M 126.5 305 L 127 307.5 L 126 307.5 L 126.5 305 Z " /><path fill="rgb(45,45,45)" stroke="rgb(45,45,45)" stroke-width="1" opacity="0.027450980392156862" d="M 511.5 306 L 512 310.5 L 369.5 454 L 369 450.5 L 370 447.5 L 511.5 306 Z " /><path fill="rgb(45,45,45)" stroke="rgb(45,45,45)" stroke-width="1" opacity="0.027450980392156862" d="M 126.5 311 L 128 319.5 L 127 319.5 L 126.5 316 L 0 441.5 L 0 437.5 L 126.5 311 Z " /><path fill="rgb(45,45,45)" stroke="rgb(45,45,45)" stroke-width="1" opacity="0.027450980392156862" d="M 361.5 312 L 362 315.5 L 361 315.5 L 361.5 312 Z " /><path fill="rgb(45,45,45)" stroke="rgb(45,45,45)" stroke-width="1" opacity="0.027450980392156862" d="M 149.5 316 L 150 319.5 L 149 319.5 L 149.5 316 Z " /><path fill="rgb(45,45,45)" stroke="rgb(45,45,45)" stroke-width="1" opacity="0.027450980392156862" d="M 382.5 322 L 383 325.5 L 382 325.5 L 382.5 322 Z " /><path fill="rgb(45,45,45)" stroke="rgb(45,45,45)" stroke-width="1" opacity="0.027450980392156862" d="M 128.5 326 L 129 333.5 L 0 461.5 L 0 457.5 L 128 329.5 L 128.5 326 Z " /><path fill="rgb(45,45,45)" stroke="rgb(45,45,45)" stroke-width="1" opacity="0.027450980392156862" d="M 511.5 326 L 512 330.5 L 330.5 512 L 326.5 512 L 511.5 326 Z " /><path fill="rgb(45,45,45)" stroke="rgb(45,45,45)" stroke-width="1" opacity="0.027450980392156862" d="M 359.5 331 L 360 335.5 L 359 335.5 L 359.5 331 Z " /><path fill="rgb(45,45,45)" stroke="rgb(45,45,45)" stroke-width="1" opacity="0.027450980392156862" d="M 129.5 336 L 130 339.5 L 129 339.5 L 129.5 336 Z " /><path fill="rgb(45,45,45)" stroke="rgb(45,45,45)" stroke-width="1" opacity="0.027450980392156862" d="M 151.5 336 L 152 340.5 L 151 340.5 L 151.5 336 Z " /><path fill="rgb(45,45,45)" stroke="rgb(45,45,45)" stroke-width="1" opacity="0.027450980392156862" d="M 380.5 342 L 381 344.5 L 380 344.5 L 380.5 342 Z " /><path fill="rgb(45,45,45)" stroke="rgb(45,45,45)" stroke-width="1" opacity="0.027450980392156862" d="M 511.5 346 L 512 350.5 L 350.5 512 L 346.5 512 L 511.5 346 Z " /><path fill="rgb(45,45,45)" stroke="rgb(45,45,45)" stroke-width="1" opacity="0.027450980392156862" d="M 130.5 347 L 131 351.5 L 0 481.5 L 0 477.5 L 130.5 347 Z " /><path fill="rgb(45,45,45)" stroke="rgb(45,45,45)" stroke-width="1" opacity="0.027450980392156862" d="M 379.5 351 L 380 354.5 L 379 354.5 L 379.5 351 Z " /><path fill="rgb(45,45,45)" stroke="rgb(45,45,45)" stroke-width="1" opacity="0.027450980392156862" d="M 357.5 352 L 358 354.5 L 357 354.5 L 357.5 352 Z " /><path fill="rgb(45,45,45)" stroke="rgb(45,45,45)" stroke-width="1" opacity="0.027450980392156862" d="M 131.5 358 L 132 360.5 L 131 360.5 L 131.5 358 Z " /><path fill="rgb(45,45,45)" stroke="rgb(45,45,45)" stroke-width="1" opacity="0.027450980392156862" d="M 153.5 359 L 154 361.5 L 153 361.5 L 153.5 359 Z " /><path fill="rgb(45,45,45)" stroke="rgb(45,45,45)" stroke-width="1" opacity="0.027450980392156862" d="M 131.5 366 L 133 371.5 L 131.5 371 L 0 501.5 L 0 497.5 L 131.5 366 Z " /><path fill="rgb(45,45,45)" stroke="rgb(45,45,45)" stroke-width="1" opacity="0.027450980392156862" d="M 511.5 366 L 512 370.5 L 370.5 512 L 366.5 512 L 511.5 366 Z " /><path fill="rgb(45,45,45)" stroke="rgb(45,45,45)" stroke-width="1" opacity="0.027450980392156862" d="M 355.5 371 L 356 374.5 L 355 374.5 L 355.5 371 Z " /><path fill="rgb(45,45,45)" stroke="rgb(45,45,45)" stroke-width="1" opacity="0.027450980392156862" d="M 377.5 371 L 378 374.5 L 377 374.5 L 377.5 371 Z " /><path fill="rgb(45,45,45)" stroke="rgb(45,45,45)" stroke-width="1" opacity="0.027450980392156862" d="M 133.5 379 L 134 381.5 L 133 381.5 L 133.5 379 Z " /><path fill="rgb(45,45,45)" stroke="rgb(45,45,45)" stroke-width="1" opacity="0.027450980392156862" d="M 133.5 384 L 135 392.5 L 134 392.5 L 133.5 389 L 10.5 512 L 6.5 512 L 133.5 384 Z " /><path fill="rgb(45,45,45)" stroke="rgb(45,45,45)" stroke-width="1" opacity="0.027450980392156862" d="M 511.5 386 L 512 390.5 L 390.5 512 L 386.5 512 L 511.5 386 Z " /><path fill="rgb(45,45,45)" stroke="rgb(45,45,45)" stroke-width="1" opacity="0.027450980392156862" d="M 156.5 390 L 157 393.5 L 156 393.5 L 156.5 390 Z " /><path fill="rgb(45,45,45)" stroke="rgb(45,45,45)" stroke-width="1" opacity="0.027450980392156862" d="M 353.5 391 L 354 394.5 L 353 394.5 L 353.5 391 Z " /><path fill="rgb(45,45,45)" stroke="rgb(45,45,45)" stroke-width="1" opacity="0.027450980392156862" d="M 375.5 391 L 376 393.5 L 375 393.5 L 375.5 391 Z " /><path fill="rgb(45,45,45)" stroke="rgb(45,45,45)" stroke-width="1" opacity="0.027450980392156862" d="M 135.5 400 L 136 406.5 L 30.5 512 L 26.5 512 L 135 402.5 L 135.5 400 Z " /><path fill="rgb(45,45,45)" stroke="rgb(45,45,45)" stroke-width="1" opacity="0.027450980392156862" d="M 352.5 401 L 353 403.5 L 352 403.5 L 352.5 401 Z " /><path fill="rgb(45,45,45)" stroke="rgb(45,45,45)" stroke-width="1" opacity="0.027450980392156862" d="M 511.5 406 L 512 410.5 L 410.5 512 L 406.5 512 L 511.5 406 Z " /><path fill="rgb(45,45,45)" stroke="rgb(45,45,45)" stroke-width="1" opacity="0.027450980392156862" d="M 136.5 410 L 137 413.5 L 136 413.5 L 136.5 410 Z " /><path fill="rgb(45,45,45)" stroke="rgb(45,45,45)" stroke-width="1" opacity="0.027450980392156862" d="M 373.5 410 L 374 412.5 L 373 412.5 L 373.5 410 Z " /><path fill="rgb(45,45,45)" stroke="rgb(45,45,45)" stroke-width="1" opacity="0.027450980392156862" d="M 158.5 411 L 159 414.5 L 158 414.5 L 158.5 411 Z " /><path fill="rgb(45,45,45)" stroke="rgb(45,45,45)" stroke-width="1" opacity="0.027450980392156862" d="M 136.5 421 Q 139.5 420.1 138 424.5 L 50.5 512 L 46.5 512 L 136.5 421 Z " /><path fill="rgb(45,45,45)" stroke="rgb(45,45,45)" stroke-width="1" opacity="0.027450980392156862" d="M 350.5 421 L 351 423.5 L 350 423.5 L 350.5 421 Z " /><path fill="rgb(45,45,45)" stroke="rgb(45,45,45)" stroke-width="1" opacity="0.027450980392156862" d="M 511.5 426 L 512 430.5 L 430.5 512 L 426.5 512 L 511.5 426 Z " /><path fill="rgb(45,45,45)" stroke="rgb(45,45,45)" stroke-width="1" opacity="0.027450980392156862" d="M 138.5 432 L 139 434.5 L 138 434.5 L 138.5 432 Z " /><path fill="rgb(45,45,45)" stroke="rgb(45,45,45)" stroke-width="1" opacity="0.027450980392156862" d="M 138.5 439 L 140 446.5 L 139 446.5 L 138.5 444 L 70.5 512 L 66.5 512 L 138.5 439 Z " /><path fill="rgb(45,45,45)" stroke="rgb(45,45,45)" stroke-width="1" opacity="0.027450980392156862" d="M 370.5 440 L 371 442.5 L 370 442.5 L 370.5 440 Z " /><path fill="rgb(45,45,45)" stroke="rgb(45,45,45)" stroke-width="1" opacity="0.027450980392156862" d="M 348.5 441 L 349 443.5 L 348 443.5 L 348.5 441 Z " /><path fill="rgb(45,45,45)" stroke="rgb(45,45,45)" stroke-width="1" opacity="0.027450980392156862" d="M 511.5 446 L 512 450.5 L 450.5 512 L 446.5 512 L 511.5 446 Z " /><path fill="rgb(45,45,45)" stroke="rgb(45,45,45)" stroke-width="1" opacity="0.027450980392156862" d="M 140.5 453 L 142 461.5 L 90.5 512 L 86.5 512 L 140 457.5 L 140.5 453 Z " /><path fill="rgb(45,45,45)" stroke="rgb(45,45,45)" stroke-width="1" opacity="0.027450980392156862" d="M 143.5 464 L 144.5 466 L 143.5 464 Z " /><path fill="rgb(45,45,45)" stroke="rgb(45,45,45)" stroke-width="1" opacity="0.027450980392156862" d="M 511.5 466 L 512 470.5 L 470.5 512 L 466.5 512 L 511.5 466 Z " /><path fill="rgb(45,45,45)" stroke="rgb(45,45,45)" stroke-width="1" opacity="0.027450980392156862" d="M 148.5 467 L 154 468.5 L 110.5 512 L 106.5 512 L 149 468.5 L 148.5 467 Z " /><path fill="rgb(45,45,45)" stroke="rgb(45,45,45)" stroke-width="1" opacity="0.027450980392156862" d="M 169.5 468 L 174 468.5 L 130.5 512 L 126.5 512 L 169.5 468 Z " /><path fill="rgb(45,45,45)" stroke="rgb(45,45,45)" stroke-width="1" opacity="0.027450980392156862" d="M 189.5 468 L 194 468.5 L 150.5 512 L 146.5 512 L 189.5 468 Z " /><path fill="rgb(45,45,45)" stroke="rgb(45,45,45)" stroke-width="1" opacity="0.027450980392156862" d="M 209.5 468 L 214 468.5 L 170.5 512 L 166.5 512 L 209.5 468 Z " /><path fill="rgb(45,45,45)" stroke="rgb(45,45,45)" stroke-width="1" opacity="0.027450980392156862" d="M 229.5 468 L 234 468.5 L 190.5 512 L 186.5 512 L 229.5 468 Z " /><path fill="rgb(45,45,45)" stroke="rgb(45,45,45)" stroke-width="1" opacity="0.027450980392156862" d="M 249.5 468 L 254 468.5 L 210.5 512 L 206.5 512 L 249.5 468 Z " /><path fill="rgb(45,45,45)" stroke="rgb(45,45,45)" stroke-width="1" opacity="0.027450980392156862" d="M 269.5 468 L 274 468.5 L 230.5 512 L 226.5 512 L 269.5 468 Z " /><path fill="rgb(45,45,45)" stroke="rgb(45,45,45)" stroke-width="1" opacity="0.027450980392156862" d="M 289.5 468 L 294 468.5 L 250.5 512 L 246.5 512 L 289.5 468 Z " /><path fill="rgb(45,45,45)" stroke="rgb(45,45,45)" stroke-width="1" opacity="0.027450980392156862" d="M 309.5 468 L 314 468.5 L 270.5 512 L 266.5 512 L 309.5 468 Z " /><path fill="rgb(45,45,45)" stroke="rgb(45,45,45)" stroke-width="1" opacity="0.027450980392156862" d="M 329.5 468 L 334 468.5 L 290.5 512 L 286.5 512 L 329.5 468 Z " /><path fill="rgb(45,45,45)" stroke="rgb(45,45,45)" stroke-width="1" opacity="0.027450980392156862" d="M 349.5 468 L 354 468.5 L 310.5 512 L 306.5 512 L 349.5 468 Z " /><path fill="rgb(45,45,45)" stroke="rgb(45,45,45)" stroke-width="1" opacity="0.027450980392156862" d="M 511.5 486 L 512 490.5 L 490.5 512 L 486.5 512 L 511.5 486 Z " /><path fill="rgb(45,45,45)" stroke="rgb(45,45,45)" stroke-width="1" opacity="0.027450980392156862" d="M 511.5 506 L 512 510.5 Q 511 513 506.5 512 L 511.5 506 Z " /></svg>